<?xml version="1.0" standalone="no"?>
<!DOCTYPE svg PUBLIC "-//W3C//DTD SVG 20010904//EN"
 "http://www.w3.org/TR/2001/REC-SVG-20010904/DTD/svg10.dtd">
<svg version="1.0" xmlns="http://www.w3.org/2000/svg"
 width="380.000000pt" height="132.000000pt" viewBox="0 0 380.000000 132.000000"
 preserveAspectRatio="xMidYMid meet">
<metadata>
Created by potrace 1.16, written by Peter Selinger 2001-2019
</metadata>
<g transform="translate(0.000000,132.000000) scale(0.100000,-0.100000)"
fill="#000000" stroke="none">
<path d="M0 1182 l0 -120 158 -4 c144 -3 162 -6 214 -30 142 -66 238 -214 238
-368 0 -154 -96 -302 -238 -368 -52 -24 -70 -27 -214 -30 l-158 -4 0 -120 0
-120 173 4 c156 4 179 7 252 32 200 69 339 207 402 400 21 67 26 101 27 196 1
132 -11 194 -60 297 -71 150 -205 266 -367 319 -73 25 -101 28 -254 32 l-173
4 0 -120z"/>
<path d="M730 1180 l0 -120 230 0 230 0 0 -520 0 -520 125 0 125 0 0 520 0
520 225 0 c124 0 225 -2 225 -4 0 -2 -16 -30 -35 -62 -55 -91 -77 -172 -83
-301 -8 -208 44 -350 178 -484 58 -58 96 -86 160 -118 129 -63 182 -71 503
-71 l277 0 0 277 0 278 278 -278 277 -277 175 0 175 0 -320 320 -320 320 238
238 237 237 0 83 0 82 -92 0 -93 0 -277 -277 -278 -278 0 278 0 277 -1080 0
-1080 0 0 -120z m1910 -520 l0 -400 -148 0 c-167 0 -212 10 -300 68 -29 19
-66 51 -82 71 -40 48 -82 133 -72 143 5 5 86 8 180 6 l172 -3 0 117 0 118
-180 2 -181 3 25 50 c49 98 113 156 223 201 52 21 73 24 211 24 l152 0 0 -400z"/>
<path d="M730 140 l0 -120 120 0 120 0 0 120 0 120 -120 0 -120 0 0 -120z"/>
</g>
</svg>
